<svg width="288" height="41" viewBox="0 0 288 41" fill="none" xmlns="http://www.w3.org/2000/svg">
<path d="M4.35808 22.9293C3.81421 22.9293 3.30107 22.7831 2.81631 22.4905C2.33156 22.2013 1.90828 21.808 1.54885 21.3205C1.18942 20.833 0.903306 20.2577 0.69758 19.5915C0.489489 18.9252 0.387809 18.2199 0.387809 17.4724V6.55215C0.387809 5.80463 0.489489 5.09936 0.69758 4.43634C0.90567 3.77008 1.18942 3.19158 1.54885 2.70732C1.90828 2.21981 2.33628 1.82654 2.81631 1.53728C3.30107 1.24152 3.81421 1.09853 4.35808 1.09853H17.8438C18.3877 1.09853 18.9008 1.24477 19.3855 1.53728C19.8703 1.83304 20.2936 2.21981 20.653 2.70732C21.0124 3.19483 21.2986 3.77008 21.5043 4.43634C21.71 5.10261 21.8141 5.80788 21.8141 6.55215V11.4793H17.8414V6.55215H4.35808V17.4724H17.8438C18.3877 17.4724 18.9008 17.6122 19.3855 17.8982C19.8703 18.1842 20.2936 18.5742 20.653 19.0682C21.0124 19.5622 21.2986 20.1505 21.5043 20.8102C21.71 21.4765 21.8141 22.1818 21.8141 22.926V33.8203C21.8141 34.5678 21.7124 35.2731 21.5043 35.9361C21.2962 36.6024 21.0124 37.1841 20.653 37.6782C20.2936 38.1722 19.8656 38.5654 19.3855 38.8482C18.9008 39.1342 18.3877 39.2739 17.8438 39.2739H3.9679C3.42403 39.2739 2.91091 39.1342 2.42852 38.8482C1.94376 38.5654 1.52047 38.1722 1.16105 37.6782C0.801616 37.1841 0.515497 36.6024 0.309771 35.9361C0.10168 35.2699 0 34.5646 0 33.8203V28.9192H3.97264V33.8203H17.8438V22.9228H4.35808V22.9293Z" fill="#14102B"/>
<path d="M46.4232 34.0316C46.4232 34.7564 46.3239 35.4421 46.1229 36.0824C45.9242 36.7194 45.6499 37.2752 45.3094 37.7497C44.9665 38.2209 44.5669 38.5914 44.1058 38.8677C43.6447 39.1439 43.1552 39.2837 42.6232 39.2837H32.3723C31.8568 39.2837 31.365 39.1472 30.8991 38.8677C30.4333 38.5947 30.0289 38.2177 29.6861 37.7497C29.3432 37.2784 29.0736 36.7259 28.8726 36.0824C28.674 35.4421 28.5699 34.7596 28.5699 34.0316V16.1626C28.5699 15.4379 28.6693 14.7521 28.8726 14.1118C29.0712 13.4748 29.3456 12.9191 29.6861 12.4446C30.0289 11.9733 30.4309 11.6028 30.8991 11.3265C31.3626 11.0535 31.8545 10.9105 32.3723 10.9105H42.6232C43.1505 10.9105 43.6447 11.047 44.1058 11.3265C44.5669 11.6028 44.9642 11.9765 45.3094 12.4446C45.6547 12.9158 45.9219 13.4683 46.1229 14.1118C46.3215 14.7521 46.4232 15.4346 46.4232 16.1626V34.0316ZM32.3771 16.1626V34.0316H42.6279V16.1626H32.3771Z" fill="#14102B"/>
<path d="M56.577 16.1626V34.0316H66.4211V29.2377H70.2377V34.0316C70.2377 34.7564 70.1384 35.4421 69.935 36.0824C69.734 36.7194 69.4621 37.2752 69.1216 37.7497C68.7787 38.2209 68.3767 38.5914 67.9085 38.8677C67.4427 39.1439 66.9461 39.2837 66.4164 39.2837H56.5723C56.0568 39.2837 55.565 39.1472 55.0991 38.8677C54.6333 38.5947 54.2289 38.2177 53.886 37.7497C53.5432 37.2784 53.2736 36.7259 53.0726 36.0824C52.874 35.4421 52.7723 34.7596 52.7723 34.0316V16.1626C52.7723 15.4379 52.8716 14.7521 53.0726 14.1118C53.2712 13.4748 53.5455 12.9191 53.886 12.4446C54.2289 11.9733 54.6309 11.6028 55.0991 11.3265C55.5626 11.0535 56.0544 10.9105 56.5723 10.9105H66.4164C66.9437 10.9105 67.4427 11.047 67.9085 11.3265C68.3744 11.6028 68.7763 11.9765 69.1216 12.4446C69.4668 12.9158 69.734 13.4683 69.935 14.1118C70.1337 14.7521 70.2377 15.4346 70.2377 16.1626V20.9565H66.4211V16.1626H56.577Z" fill="#14102B"/>
<path d="M76.5916 0H80.7959V5.46013H76.5916V0ZM80.602 10.9138V39.2772H76.7855V10.9138H80.602Z" fill="#14102B"/>
<path d="M87.1522 26.8976C87.1522 26.1729 87.2515 25.4936 87.4549 24.8598C87.6535 24.2261 87.9278 23.6736 88.2683 23.1925C88.6112 22.7148 89.0132 22.3378 89.4814 22.0615C89.9496 21.7853 90.4391 21.6488 90.9546 21.6488H100.799V16.1626H88.3416V10.917H100.799C101.331 10.917 101.827 11.0535 102.291 11.333C102.757 11.606 103.159 11.983 103.504 12.451C103.847 12.9223 104.116 13.4748 104.317 14.1183C104.516 14.7586 104.62 15.4411 104.62 16.1691V39.2869H100.796V34.4931C100.759 35.1496 100.628 35.7704 100.409 36.3554C100.189 36.9404 99.9072 37.4539 99.5667 37.8862C99.2238 38.3217 98.8337 38.6629 98.3938 38.9099C97.9564 39.1569 97.4882 39.2804 96.9987 39.2804H90.9522C90.4367 39.2804 89.9449 39.1439 89.479 38.8644C89.0132 38.5882 88.6112 38.2144 88.266 37.7464C87.9231 37.2752 87.6535 36.7226 87.4525 36.0791C87.2539 35.4389 87.1522 34.7563 87.1522 34.0283V26.8976ZM90.9499 34.0316H100.794V26.8944H90.9499V34.0316Z" fill="#14102B"/>
<path d="M114.762 0V39.2837H110.964V0H114.762Z" fill="#14102B"/>
<path d="M154.66 20.7384C155.242 20.9854 155.769 21.3397 156.249 21.8012C156.727 22.2627 157.136 22.851 157.472 23.5757C157.808 24.294 158.065 25.1423 158.245 26.1173C158.425 27.0956 158.515 28.2104 158.515 29.4714V31.3889C158.515 37.5673 156.268 40.6549 151.773 40.6549H136.563V2.46646H150.981C155.476 2.46646 157.722 5.5638 157.722 11.7617V12.454C157.722 14.6023 157.474 16.3541 156.978 17.7126C156.479 19.0711 155.708 20.0787 154.66 20.7384ZM140.46 7.81935V18.6844H151.137C152.094 18.6291 152.78 18.2716 153.201 17.6021C153.62 16.9358 153.833 15.9088 153.833 14.5275V12.025C153.833 10.5689 153.598 9.50289 153.137 8.83012C152.676 8.15736 151.915 7.8161 150.872 7.8161H140.463V7.81935H140.46ZM140.46 24.0113V35.302H151.659C152.707 35.302 153.461 34.964 153.925 34.288C154.391 33.612 154.62 32.559 154.62 31.1192V28.1616C154.62 26.7056 154.386 25.6493 153.925 24.9928C153.464 24.3362 152.702 24.0047 151.659 24.0047H140.46V24.0113Z" fill="#14102B"/>
<path d="M164.079 28.2721C164.079 27.5473 164.178 26.868 164.379 26.2343C164.578 25.6005 164.852 25.048 165.192 24.567C165.535 24.0892 165.937 23.7122 166.405 23.436C166.871 23.163 167.363 23.0199 167.879 23.0199H177.723V17.5338H165.266V12.2882H177.723C178.255 12.2882 178.751 12.4247 179.215 12.7009C179.681 12.9739 180.083 13.351 180.428 13.819C180.771 14.2902 181.04 14.8427 181.241 15.4863C181.44 16.1265 181.544 16.809 181.544 17.5371V40.6549H177.727V35.861C177.69 36.5175 177.56 37.1383 177.34 37.7233C177.12 38.3083 176.838 38.8218 176.498 39.2541C176.155 39.6896 175.765 40.0309 175.325 40.2779C174.887 40.5249 174.419 40.6484 173.93 40.6484H167.874C167.358 40.6484 166.867 40.5119 166.401 40.2324C165.935 39.9594 165.533 39.5824 165.188 39.1143C164.845 38.6431 164.575 38.0906 164.374 37.447C164.176 36.8068 164.074 36.1243 164.074 35.3962V28.2656H164.079V28.2721ZM167.874 35.4093H177.718V28.2721H167.874V35.4093Z" fill="#14102B"/>
<path d="M191.691 1.37444V40.6581H187.893V1.37444H191.691Z" fill="#14102B"/>
<path d="M198.042 28.2721C198.042 27.5473 198.142 26.868 198.343 26.2343C198.541 25.6005 198.815 25.048 199.156 24.567C199.499 24.0892 199.901 23.7122 200.369 23.436C200.837 23.1597 201.327 23.0199 201.842 23.0199H211.686V17.5338H199.229V12.2882H211.686C212.218 12.2882 212.715 12.4247 213.178 12.7009C213.644 12.9739 214.046 13.351 214.392 13.819C214.734 14.2902 215.004 14.8427 215.205 15.4863C215.404 16.1265 215.508 16.809 215.508 17.5371V40.6549H211.691V35.861C211.653 36.5175 211.523 37.1383 211.303 37.7233C211.083 38.3083 210.802 38.8218 210.461 39.2541C210.119 39.6896 209.728 40.0309 209.289 40.2779C208.851 40.5249 208.383 40.6484 207.893 40.6484H201.847C201.331 40.6484 200.84 40.5119 200.374 40.2324C199.908 39.9561 199.506 39.5824 199.161 39.1143C198.818 38.6431 198.548 38.0906 198.347 37.447C198.149 36.8068 198.045 36.1243 198.045 35.3962V28.2656H198.042V28.2721ZM201.842 35.4093H211.686V28.2721H201.842V35.4093Z" fill="#14102B"/>
<path d="M240.11 40.6549H236.293V17.5371H225.657V40.6549H221.859V12.2914H225.657V17.2998C225.683 16.6075 225.799 15.9543 226.005 15.3433C226.21 14.7322 226.487 14.1992 226.827 13.7442C227.17 13.2925 227.568 12.9382 228.017 12.6814C228.469 12.4247 228.953 12.2979 229.471 12.2979H236.291C236.818 12.2979 237.317 12.4344 237.783 12.7139C238.249 12.9902 238.651 13.364 238.996 13.832C239.341 14.3032 239.608 14.8558 239.809 15.4993C240.008 16.1395 240.112 16.8221 240.112 17.5501V40.6581H240.11V40.6549Z" fill="#14102B"/>
<path d="M250.264 17.5371V35.406H260.108V30.6121H263.924V35.406C263.924 36.1308 263.825 36.8165 263.622 37.4568C263.421 38.0938 263.149 38.6496 262.808 39.1241C262.465 39.5954 262.063 39.9659 261.595 40.2421C261.129 40.5184 260.633 40.6581 260.103 40.6581H250.259C249.743 40.6581 249.252 40.5216 248.786 40.2421C248.32 39.9691 247.916 39.5921 247.573 39.1241C247.23 38.6528 246.96 38.1003 246.759 37.4568C246.561 36.8165 246.459 36.134 246.459 35.406V17.5371C246.459 16.8123 246.558 16.1265 246.759 15.4863C246.958 14.8492 247.232 14.2935 247.573 13.819C247.916 13.3477 248.318 12.9772 248.786 12.7009C249.249 12.4279 249.741 12.2849 250.259 12.2849H260.103C260.63 12.2849 261.129 12.4214 261.595 12.7009C262.061 12.9772 262.463 13.351 262.808 13.819C263.153 14.2902 263.421 14.8427 263.622 15.4863C263.82 16.1265 263.924 16.809 263.924 17.5371V22.3309H260.108V17.5371H250.264Z" fill="#14102B"/>
<path d="M287.737 29.1496H274.076V35.4093H287.737V40.6549H274.076C273.56 40.6549 273.068 40.5184 272.603 40.2389C272.137 39.9659 271.732 39.5889 271.39 39.1208C271.047 38.6496 270.777 38.0971 270.576 37.4536C270.378 36.8133 270.276 36.1308 270.276 35.4028V17.5338C270.276 16.8091 270.375 16.1233 270.576 15.483C270.775 14.846 271.049 14.2902 271.39 13.8157C271.732 13.3445 272.134 12.974 272.603 12.6977C273.066 12.4247 273.558 12.2849 274.076 12.2849H283.92C284.447 12.2849 284.946 12.4215 285.412 12.6977C285.878 12.9707 286.28 13.3477 286.625 13.8157C286.968 14.287 287.238 14.8395 287.439 15.483C287.637 16.1233 287.741 16.8058 287.741 17.5338V29.1496H287.737ZM274.078 17.5371V23.904H283.922V17.5371H274.078Z" fill="#14102B"/>
</svg>
