<?xml version="1.0" standalone="no"?>
<!DOCTYPE svg PUBLIC "-//W3C//DTD SVG 20010904//EN"
 "http://www.w3.org/TR/2001/REC-SVG-20010904/DTD/svg10.dtd">
<svg version="1.0" xmlns="http://www.w3.org/2000/svg"
 width="640.000000pt" height="640.000000pt" viewBox="0 0 640.000000 640.000000"
 preserveAspectRatio="xMidYMid meet">

<g transform="translate(0.000000,640.000000) scale(0.100000,-0.100000)"
fill="#000000" stroke="none">
<path d="M1686 5449 c-110 -16 -181 -39 -286 -91 -91 -45 -118 -65 -201 -148
-132 -130 -196 -249 -233 -431 -20 -101 -30 -560 -17 -814 12 -230 27 -299 97
-436 82 -158 193 -268 356 -350 97 -49 234 -89 313 -92 l60 -2 3 763 2 762
1188 0 c703 0 1217 -5 1261 -10 132 -17 243 -88 305 -195 14 -23 35 -77 47
-121 13 -43 27 -85 32 -91 14 -19 103 -16 193 7 268 68 493 269 589 525 44
116 53 191 56 453 3 218 1 244 -14 260 -17 16 -129 17 -1855 18 -1010 1 -1864
-2 -1896 -7z"/>
<path d="M2176 3618 c-14 -19 -16 -76 -16 -418 0 -342 2 -399 16 -418 l15 -22
1009 0 1009 0 15 22 c14 19 16 76 16 418 0 342 -2 399 -16 418 l-15 22 -1009
0 -1009 0 -15 -22z"/>
<path d="M4636 3308 c-17 -14 -18 -41 -20 -574 -3 -600 -3 -599 -56 -709 -54
-111 -177 -199 -314 -224 -41 -8 -448 -11 -1263 -11 l-1203 0 0 214 c0 252 9
236 -127 211 -312 -59 -559 -272 -661 -572 -33 -96 -41 -170 -44 -427 l-2
-238 23 -19 c23 -19 68 -19 1890 -16 1779 3 1869 4 1936 21 264 70 461 228
576 461 79 160 81 178 80 710 0 435 -1 476 -20 546 -65 251 -236 454 -474 564
-126 58 -285 89 -321 63z"/>
</g>
</svg>
